HIERARCHY
ROOT reference
{
  OFFSET 0 0 0
  CHANNELS 6 Xposition Yposition Zposition Zrotation Xrotation Yrotation
  JOINT Hips
  {
    OFFSET -61.5299 84.7932 -85.7079
    CHANNELS 6 Xposition Yposition Zposition Zrotation Xrotation Yrotation
    JOINT Spine
    {
      OFFSET 0 8.22665 0
      CHANNELS 6 Xposition Yposition Zposition Zrotation Xrotation Yrotation
      JOINT Spine1
      {
        OFFSET 0 24.451 0
        CHANNELS 6 Xposition Yposition Zposition Zrotation Xrotation Yrotation
        JOINT Neck
        {
          OFFSET 0 24.3506 2.21369
          CHANNELS 6 Xposition Yposition Zposition Zrotation Xrotation Yrotation
          JOINT Head
          {
            OFFSET 0 14.0455 -2.0065
            CHANNELS 6 Xposition Yposition Zposition Zrotation Xrotation Yrotation
            End Site
            {
              OFFSET 0 25.0812 0
            }
          }
        }
        JOINT LeftShoulder
        {
          OFFSET 4.0594 22.2558 -0.272799
          CHANNELS 6 Xposition Yposition Zposition Zrotation Xrotation Yrotation
          JOINT LeftArm
          {
            OFFSET 12.0298 0 0
            CHANNELS 6 Xposition Yposition Zposition Zrotation Xrotation Yrotation
            JOINT LeftForeArm
            {
              OFFSET 31.2689 0 0
              CHANNELS 6 Xposition Yposition Zposition Zrotation Xrotation Yrotation
              JOINT LeftHand
              {
                OFFSET 28.0275 0 0
                CHANNELS 6 Xposition Yposition Zposition Zrotation Xrotation Yrotation
                End Site
                {
                  OFFSET 15.0487 0 0
                }
              }
            }
          }
        }
        JOINT RightShoulder
        {
          OFFSET -3.96464 22.2558 -0.272799
          CHANNELS 6 Xposition Yposition Zposition Zrotation Xrotation Yrotation
          JOINT RightArm
          {
            OFFSET -12.0298 0 0
            CHANNELS 6 Xposition Yposition Zposition Zrotation Xrotation Yrotation
            JOINT RightForeArm
            {
              OFFSET -31.2689 0 0
              CHANNELS 6 Xposition Yposition Zposition Zrotation Xrotation Yrotation
              JOINT RightHand
              {
                OFFSET -28.0275 0 0
                CHANNELS 6 Xposition Yposition Zposition Zrotation Xrotation Yrotation
                End Site
                {
                  OFFSET -15.0487 0 0
                }
              }
            }
          }
        }
      }
    }
    JOINT LeftUpLeg
    {
      OFFSET 10.0325 0 0
      CHANNELS 6 Xposition Yposition Zposition Zrotation Xrotation Yrotation
      JOINT LeftLeg
      {
        OFFSET 0 -38.4033 0
        CHANNELS 6 Xposition Yposition Zposition Zrotation Xrotation Yrotation
        JOINT LeftFoot
        {
          OFFSET 0 -44.1642 0
          CHANNELS 6 Xposition Yposition Zposition Zrotation Xrotation Yrotation
          JOINT LeftToeBase
          {
            OFFSET 0 -6.52112 15.0487
            CHANNELS 6 Xposition Yposition Zposition Zrotation Xrotation Yrotation
            End Site
            {
              OFFSET 0 0 4.013
            }
          }
        }
      }
    }
    JOINT RightUpLeg
    {
      OFFSET -10.0325 0 0
      CHANNELS 6 Xposition Yposition Zposition Zrotation Xrotation Yrotation
      JOINT RightLeg
      {
        OFFSET 0 -38.4033 0
        CHANNELS 6 Xposition Yposition Zposition Zrotation Xrotation Yrotation
        JOINT RightFoot
        {
          OFFSET 0 -44.1642 0
          CHANNELS 6 Xposition Yposition Zposition Zrotation Xrotation Yrotation
          JOINT RightToeBase
          {
            OFFSET 0 -6.52112 15.0487
            CHANNELS 6 Xposition Yposition Zposition Zrotation Xrotation Yrotation
            End Site
            {
              OFFSET 0 0 4.013
            }
          }
        }
      }
    }
  }
}
MOTION
Frames:	9
Frame Time:	0.004
0 0 0 0 0 -0 -14.6736 85.6312 -202.069 1.15078 -2.39716 1.36984 0 8.22665 0 -0.316833 -5.6519 0.889029 8.88178e-016 24.451 0 -0.531967 1.82094 0.913636 0 24.3506 2.21369 9.34025 22.1237 12.1847 1.42109e-014 14.0455 -2.0065 -15.6955 2.94816 11.4061 4.0594 22.2558 -0.272799 21.3104 1.14872 -4.0901 12.0298 -2.84217e-014 -2.84217e-014 -17.7907 6.45866 -0.0447775 31.2689 -2.84217e-014 -2.84217e-014 1.37299 -6.71555 5.91852 28.0275 0 0 30.8571 -3.81173 10.7881 -3.96464 22.2558 -0.272799 -18.4207 -4.12777 1.20543 -12.0298 -2.84217e-014 5.68434e-014 10.2943 0.896862 6.06844 -31.2689 0 0 0.745769 2.06836 -5.77606 -28.0275 2.84217e-014 -2.84217e-014 -11.4623 2.24559 -1.39608 10.0325 0 0 0.773987 7.77238 -0.317397 -2.22045e-016 -38.4033 0 -3.08507 2.82351 -3.05986 1.77636e-015 -44.1642 0 1.0001 -8.69918 15.9425 0 -6.52112 15.0487 -2.48481e-017 0 -1.59028e-015 -10.0325 -2.84217e-014 2.84217e-014 -4.38388 0.325072 0.419393 3.55271e-015 -38.4033 0 3.19735 19.0846 -3.62158 0 -44.1642 0 1.36118 -16.6947 -14.4183 0 -6.52112 15.0487 2.48481e-017 -9.93923e-017 6.36111e-015 
0 0 0 0 0 -0 -14.6736 85.6312 -202.069 1.1506 -2.38959 1.36983 0 8.22665 2.84217e-014 -0.316602 -5.66668 0.889052 8.88178e-016 24.451 0 -0.532166 1.83345 0.913642 -1.77636e-015 24.3506 2.21369 9.34247 22.1142 12.1839 0 14.0455 -2.0065 -15.6943 2.9664 11.4091 4.0594 22.2558 -0.272799 21.2969 1.14872 -4.0901 12.0298 0 -2.84217e-014 -17.7907 6.46078 -0.0447777 31.2689 -2.84217e-014 2.84217e-014 1.37155 -6.71148 5.90988 28.0275 -2.84217e-014 0 30.8902 -3.80896 10.7699 -3.96464 22.2558 -0.272799 -18.4203 -4.13439 1.20896 -12.0298 2.84217e-014 0 10.3115 0.900149 6.06844 -31.2689 0 0 0.7446 2.05681 -5.77602 -28.0275 -2.84217e-014 -2.84217e-014 -11.4414 2.2319 -1.37786 10.0325 1.42109e-014 0 0.777433 7.76841 -0.343046 0 -38.4033 0 -3.08555 2.82354 -3.05016 0 -44.1642 0 1.00258 -8.7106 15.938 0 -6.52112 15.0487 2.48481e-017 0 -0 -10.0325 0 2.84217e-014 -4.38405 0.319244 0.456323 0 -38.4033 0 3.20889 19.084 -3.65149 0 -44.1642 0 1.36013 -16.6915 -14.4243 0 -6.52112 15.0487 1.2424e-017 -4.96962e-017 3.18055e-015 
0 0 0 0 0 -0 -14.6736 85.6312 -202.069 1.15039 -2.38076 1.36982 0 8.22665 0 -0.316442 -5.67699 0.889068 1.77636e-015 24.451 2.84217e-014 -0.532189 1.83488 0.913643 -3.55271e-015 24.3506 2.21369 9.34157 22.1376 12.1743 0 14.0455 -2.0065 -15.7053 2.94355 11.397 4.0594 22.2558 -0.272799 21.2887 1.15893 -4.09012 12.0298 2.84217e-014 0 -17.7907 6.44871 -0.0447766 31.2689 2.84217e-014 0 1.36855 -6.6972 5.89694 28.0275 0 0 30.8767 -3.7961 10.7689 -3.96464 22.2558 -0.272799 -18.4201 -4.11242 1.21849 -12.0298 0 2.84217e-014 10.3165 0.881711 6.06388 -31.2689 0 0 0.74526 2.06518 -5.77092 -28.0275 0 0 -11.457 2.24219 -1.39135 10.0325 1.42109e-014 0 0.772987 7.76126 -0.310442 4.44089e-016 -38.4033 0 -3.08383 2.82345 -3.08509 0 -44.1642 0 1.00137 -8.71742 15.9568 0 -6.52112 15.0487 -1.98785e-016 -9.93923e-017 -0 -10.0325 -1.42109e-014 0 -4.38398 0.31323 0.45379 3.55271e-015 -38.4033 2.84217e-014 3.21134 19.0837 -3.62902 0 -44.1642 0 1.35208 -16.7089 -14.4374 0 -6.52112 15.0487 0 9.93923e-017 -0 
0 0 0 0 0 -0 -14.6736 85.6312 -202.069 1.15025 -2.3759 1.36922 0 8.22665 -2.84217e-014 -0.316323 -5.68461 0.889079 0 24.451 0 -0.53251 1.83894 0.913645 -1.77636e-015 24.3506 2.21369 9.34248 22.1374 12.1786 0 14.0455 -2.0065 -15.6968 2.95226 11.4037 4.0594 22.2558 -0.272799 21.2882 1.14633 -4.08607 12.0298 -2.84217e-014 0 -17.799 6.45724 -0.0447774 31.2689 0 0 1.36918 -6.70967 5.89139 28.0275 0 0 30.8837 -3.80814 10.7689 -3.96464 22.2558 -0.272799 -18.4193 -4.14567 1.22064 -12.0298 2.84217e-014 0 10.3436 0.922464 6.05873 -31.2689 0 -2.84217e-014 0.733749 2.05219 -5.76616 -28.0275 0 2.84217e-014 -11.4261 2.22875 -1.39652 10.0325 0 2.84217e-014 0.775268 7.75246 -0.327705 -4.44089e-016 -38.4033 0 -3.0834 2.82343 -3.09378 0 -44.1642 -2.84217e-014 0.977522 -8.71397 15.997 0 -6.52112 15.0487 -9.93923e-017 9.93923e-017 -0 -10.0325 1.42109e-014 -2.84217e-014 -4.38398 0.30781 0.461048 0 -38.4033 -2.84217e-014 3.2161 19.0751 -3.62944 7.10543e-015 -44.1642 2.84217e-014 1.3898 -16.7034 -14.4527 -1.42109e-014 -6.52112 15.0487 3.72721e-017 0 6.36111e-015 
0 0 0 0 0 -0 -14.6736 85.6312 -202.069 1.14998 -2.38452 1.35799 1.77636e-015 8.22665 -2.84217e-014 -0.316302 -5.68594 0.889082 -8.88178e-016 24.451 0 -0.533084 1.8512 0.913652 1.77636e-015 24.3506 2.21369 9.32562 22.1632 12.1772 0 14.0455 -2.0065 -15.6765 2.90705 11.4009 4.0594 22.2558 -0.272799 21.2906 1.15198 -4.07223 12.0298 0 0 -17.8053 6.45268 -0.0447769 31.2689 2.84217e-014 -2.84217e-014 1.36692 -6.69996 5.88072 28.0275 2.84217e-014 2.84217e-014 30.8471 -3.80951 10.7427 -3.96464 22.2558 -0.272799 -18.4056 -4.14292 1.24177 -12.0298 0 0 10.3403 0.933615 6.04292 -31.2689 -2.84217e-014 0 0.739181 2.01412 -5.73003 -28.0275 0 -2.84217e-014 -11.4794 2.20347 -1.51697 10.0325 0 0 0.773495 7.774 -0.31369 -4.44089e-016 -38.4033 0 -3.08607 2.80782 -3.05668 0 -44.1642 0 0.984456 -8.71221 15.9569 0 -6.52112 15.0487 -1.2424e-016 2.98177e-016 -3.18055e-015 -10.0325 1.42109e-014 -2.84217e-014 -4.38432 0.324028 0.497395 3.55271e-015 -38.4033 2.84217e-014 3.23463 19.0723 -3.67615 0 -44.1642 0 1.30177 -16.7065 -14.4289 0 -6.52112 15.0487 -1.2424e-017 -4.96962e-017 -3.18055e-015 
0 0 0 0 0 -0 -14.6736 85.6312 -202.069 1.14946 -2.36578 1.35602 0 8.22665 0 -0.316055 -5.70178 0.889106 -8.88178e-016 24.451 0 -0.533454 1.84622 0.913649 1.77636e-015 24.3506 2.21369 9.34029 22.1599 12.1723 0 14.0455 -2.0065 -15.6801 2.93101 11.3981 4.0594 22.2558 -0.272799 21.293 1.15064 -4.07201 12.0298 2.84217e-014 0 -17.8102 6.44767 -0.0447765 31.2689 -5.68434e-014 0 1.36244 -6.70392 5.87359 28.0275 0 0 30.8675 -3.81071 10.7442 -3.96464 22.2558 -0.272799 -18.3943 -4.12337 1.19864 -12.0298 -5.68434e-014 0 10.3567 1.2289 6.09621 -31.2689 -5.68434e-014 -2.84217e-014 0.665855 1.86897 -5.71046 -28.0275 2.84217e-014 2.84217e-014 -11.464 2.05962 -1.56934 10.0325 1.42109e-014 0 0.770983 7.74676 -0.296153 2.22045e-016 -38.4033 0 -3.08449 2.82215 -3.07318 -1.77636e-015 -44.1642 -2.84217e-014 1.00433 -8.71045 15.9315 0 -6.52112 15.0487 2.48481e-017 9.93923e-017 3.18055e-015 -10.0325 1.42109e-014 -2.84217e-014 -4.37314 0.303088 0.512765 -3.55271e-015 -38.4033 -2.84217e-014 3.22611 19.0774 -3.64616 -7.10543e-015 -44.1642 0 1.33317 -16.7046 -14.4825 0 -6.52112 15.0487 2.48481e-017 -1.49089e-016 3.18055e-015 
0 0 0 0 0 -0 -14.6736 85.6312 -202.069 1.14954 -2.37045 1.35538 -1.77636e-015 8.22665 -2.84217e-014 -0.315905 -5.70161 0.89064 8.88178e-016 24.451 -2.84217e-014 -0.534016 1.84904 0.91519 -1.77636e-015 24.3506 2.21369 9.3172 22.1597 12.1713 0 14.0455 -2.0065 -15.645 2.931 11.3997 4.0594 22.2558 -0.272799 21.3062 1.13862 -4.07153 12.0298 0 -2.84217e-014 -17.8367 6.44684 -0.0447764 31.2689 0 2.84217e-014 1.37829 -6.70254 5.85869 28.0275 0 0 30.8317 -3.80974 10.7424 -3.96464 22.2558 -0.272799 -18.4019 -4.12179 1.20866 -12.0298 0 2.84217e-014 10.3851 1.23207 6.0863 -31.2689 2.84217e-014 2.84217e-014 0.655805 1.85467 -5.70072 -28.0275 2.84217e-014 2.84217e-014 -11.4557 2.04452 -1.56836 10.0325 0 -2.84217e-014 0.774029 7.75619 -0.318364 -6.66134e-016 -38.4033 0 -3.08543 2.81265 -3.06446 0 -44.1642 0 0.98004 -8.70733 15.9408 0 -6.52112 15.0487 -2.73329e-016 0 -0 -10.0325 -1.42109e-014 0 -4.37877 0.313676 0.518603 3.55271e-015 -38.4033 0 3.22936 19.065 -3.68631 0 -44.1642 0 1.31432 -16.7055 -14.4455 0 -6.52112 15.0487 3.72721e-017 0 3.18055e-015 
0 0 0 0 0 -0 -14.6736 85.6312 -202.067 1.14955 -2.37075 1.35528 0 8.22665 0 -0.315801 -5.69889 0.892111 -8.88178e-016 24.451 0 -0.534563 1.85326 0.916676 0 24.3506 2.21369 9.33837 22.1856 12.1615 0 14.0455 -2.0065 -15.6829 2.91712 11.3868 4.0594 22.2558 -0.272799 21.2811 1.15683 -4.07105 12.0298 2.84217e-014 2.84217e-014 -17.8219 6.44666 -0.0447764 31.2689 0 2.84217e-014 1.38478 -6.70034 5.84522 28.0275 -2.84217e-014 0 30.7968 -3.822 10.7252 -3.96464 22.2558 -0.272799 -18.4079 -4.14725 1.26814 -12.0298 0 0 10.4107 1.27602 6.00488 -31.2689 2.84217e-014 0 0.647276 1.837 -5.67749 -28.0275 0 -2.84217e-014 -11.4535 2.02788 -1.58433 10.0325 0 0 0.772719 7.7654 -0.308295 0 -38.4033 2.84217e-014 -3.08727 2.79891 -3.0419 -1.77636e-015 -44.1642 0 1.03747 -8.70561 15.9163 0 -6.52112 15.0487 2.48481e-016 0 -0 -10.0325 0 0 -4.37743 0.31379 0.504657 0 -38.4033 0 3.22058 19.0675 -3.68511 0 -44.1642 2.84217e-014 1.33757 -16.6952 -14.4232 0 -6.52112 15.0487 1.2424e-017 4.96962e-017 3.18055e-015 
0 0 0 0 0 -0 -14.6736 85.6312 -202.064 1.14953 -2.37069 1.35497 -1.77636e-015 8.22665 0 -0.315504 -5.70777 0.893718 8.88178e-016 24.451 2.84217e-014 -0.535008 1.85638 0.918274 0 24.3506 2.21369 9.33446 22.187 12.1644 1.42109e-014 14.0455 -2.0065 -15.6568 2.92022 11.3931 4.0594 22.2558 -0.272799 21.2987 1.14533 -4.07051 12.0298 0 -2.84217e-014 -17.8428 6.44687 -0.0451804 31.2689 2.84217e-014 0 1.39317 -6.6979 5.8346 28.0275 0 2.84217e-014 30.7649 -3.82019 10.727 -3.96464 22.2558 -0.272799 -18.3919 -4.14827 1.26836 -12.0298 0 -2.84217e-014 10.4158 1.26364 6.01107 -31.2689 0 0 0.64512 1.84329 -5.67638 -28.0275 -2.84217e-014 0 -11.4249 2.03407 -1.58829 10.0325 -1.42109e-014 0 0.772199 7.76243 -0.304562 -2.22045e-016 -38.4033 0 -3.08782 2.80399 -3.02509 0 -44.1642 0 1.00197 -8.70265 15.9246 0 -6.52112 15.0487 -9.93923e-017 9.93923e-017 3.18055e-015 -10.0325 -1.42109e-014 0 -4.37541 0.314579 0.534471 3.55271e-015 -38.4033 0 3.22745 19.0672 -3.69471 0 -44.1642 2.84217e-014 1.29624 -16.7063 -14.4476 -1.42109e-014 -6.52112 15.0487 -2.75869e-033 4.96962e-017 3.18055e-015 
